:FULLY-SPECIFIED
:FORCE-ALL-JOINTS-BE-3DOF
:DEGREES
1937
root 5.46414 13.7615 28.1946 -26.0617 69.8252 -30.3149
lfemur -61.9652 13.1792 -6.82143
ltibia 68.4852 -0 0
lfoot -4.78427 -0.498876 -0.0772823
ltoes -32.6973 0 0
rfemur -3.22021 -5.75891 17.6363
rtibia 60.9231 -0 0
rfoot -25.2474 -29.6041 0.0509859
rtoes -27.1476 0 0
lowerback 12.8587 4.66243 4.53435
upperback -0.829052 7.28347 3.60722
thorax -8.01738 3.45903 -0.0906483
lowerneck -0.376255 14.9882 7.11067
upperneck 5.49268 20.4259 -7.22741
head 3.51505 10.1708 -2.66778
lclavicle 4.57205e-14 -6.59965e-14 0
lhumerus 63.5907 -25.0024 58.4079
lradius 39.2757 -0 0
lwrist -2.63166 0 0
lhand -14.5117 34.5299 -0.0277051
lfingers 7.12502 -0 0
lthumb 11.6354 64.1796 -0.0278968
rclavicle 4.57205e-14 -6.59965e-14 0
rhumerus -45.0687 22.9967 -78.1234
rradius 93.7194 -0 0
rwrist -38.2463 0 0
rhand -13.4264 -43.3931 0.0273269
rfingers 7.12502 -0 0
rthumb 12.6803 -72.9619 0.0331665
1938
root 5.3246 13.7751 28.2275 -27.8606 70.992 -32.1696
lfemur -62.0843 13.1282 -7.6663
ltibia 68.2197 -0 0
lfoot -4.94655 -0.157419 -0.0908215
ltoes -32.6379 0 0
rfemur -3.66075 -5.77386 17.993
rtibia 61.0228 -0 0
rfoot -25.4644 -29.7728 0.0599153
rtoes -27.129 0 0
lowerback 12.932 4.52969 4.59717
upperback -0.809655 7.12757 3.64072
thorax -8.04025 3.38277 -0.0618613
lowerneck -0.413712 14.9298 7.06983
upperneck 5.39206 20.3431 -7.27866
head 3.48212 10.1283 -2.68452
lclavicle 4.57205e-14 -6.59965e-14 0
lhumerus 64.0557 -25.63 57.4586
lradius 41.5312 -0 0
lwrist -2.10312 0 0
lhand -14.6507 34.673 -0.0325564
lfingers 7.12502 -0 0
lthumb 11.5013 64.329 -0.0327817
rclavicle 4.57205e-14 -6.59965e-14 0
rhumerus -44.832 23.6858 -78.1254
rradius 94.026 -0 0
rwrist -38.6795 0 0
rhand -13.1719 -43.316 0.0321127
rfingers 7.12502 -0 0
rthumb 12.9253 -72.8647 0.0389749
1939
root 5.18506 13.7887 28.2605 -30.0465 72.2169 -34.4149
lfemur -62.2108 13.0717 -8.57015
ltibia 67.9356 -0 0
lfoot -5.12031 0.208049 -0.104239
ltoes -32.5744 0 0
rfemur -4.13233 -5.78684 18.3748
rtibia 61.1295 -0 0
rfoot -25.6965 -29.9533 0.0687639
rtoes -27.1092 0 0
lowerback 13.0103 4.38754 4.6642
upperback -0.789006 6.96073 3.6765
thorax -8.06475 3.30117 -0.0310222
lowerneck -0.45374 14.8674 7.02618
upperneck 5.28453 20.2543 -7.33331
head 3.4469 10.0829 -2.70242
lclavicle 4.57205e-14 -6.59965e-14 0
lhumerus 64.5688 -26.2937 56.4309
lradius 43.945 -0 0
lwrist -1.53748 0 0
lhand -14.7994 34.8262 -0.0373635
lfingers 7.12502 -0 0
lthumb 11.3577 64.4889 -0.0376221
rclavicle 4.57205e-14 -6.59965e-14 0
rhumerus -44.5772 24.4232 -78.124
rradius 94.354 -0 0
rwrist -39.1431 0 0
rhand -12.8996 -43.2335 0.0368551
rfingers 7.12502 -0 0
rthumb 13.1875 -72.7607 0.0447307
1940
root 5.04551 13.8023 28.2934 -32.7132 73.4817 -37.1443
lfemur -62.3439 13.0098 -9.52727
ltibia 67.6347 -0 0
lfoot -5.30446 0.595247 -0.117244
ltoes -32.5071 0 0
rfemur -4.63198 -5.79718 18.7795
rtibia 61.2426 -0 0
rfoot -25.9425 -30.1447 0.0773392
rtoes -27.0881 0 0
lowerback 13.093 4.23685 4.73498
upperback -0.767253 6.78397 3.71433
thorax -8.09076 3.21474 0.00168238
lowerneck -0.496077 14.8011 6.98001
upperneck 5.17078 20.1601 -7.39097
head 3.40961 10.0348 -2.72134
lclavicle 4.57205e-14 -6.59965e-14 0
lhumerus 65.1301 -26.9876 55.3284
lradius 46.5021 -0 0
lwrist -0.938274 0 0
lhand -14.957 34.9885 -0.042022
lfingers 7.12502 -0 0
lthumb 11.2057 64.6583 -0.0423128
rclavicle 4.57205e-14 -6.59965e-14 0
rhumerus -44.3057 25.2045 -78.1187
rradius 94.7016 -0 0
rwrist -39.6342 0 0
rhand -12.6112 -43.146 0.041451
rfingers 7.12502 -0 0
rthumb 13.4652 -72.6504 0.0503087
1941
root 4.90597 13.8159 28.3264 -35.9844 74.7645 -40.4813
lfemur -62.4824 12.9424 -10.5319
ltibia 67.3186 -0 0
lfoot -5.49794 1.0019 -0.129561
ltoes -32.4364 0 0
rfemur -5.15675 -5.80425 19.2044
rtibia 61.3614 -0 0
rfoot -26.2009 -30.3456 0.0854601
rtoes -27.066 0 0
lowerback 13.1797 4.0785 4.80907
upperback -0.744545 6.59833 3.75396
thorax -8.11812 3.124 0.0360655
lowerneck -0.540463 14.7316 6.93158
upperneck 5.05151 20.0611 -7.45128
head 3.37047 9.98424 -2.74117
lclavicle 4.57205e-14 -6.59965e-14 0
lhumerus 65.7394 -27.7058 54.155
lradius 49.1873 -0 0
lwrist -0.309032 0 0
lhand -15.1225 35.159 -0.0464334
lfingers 7.12502 -0 0
lthumb 11.046 64.8362 -0.0467547
rclavicle 4.57205e-14 -6.59965e-14 0
rhumerus -44.0185 26.0248 -78.1085
rradius 95.0665 -0 0
rwrist -40.15 0 0
rhand -12.3082 -43.0542 0.0458034
rfingers 7.12502 -0 0
rthumb 13.7569 -72.5347 0.0555911
1942
root 4.76643 13.8295 28.3593 -40.0212 76.0381 -44.5863
lfemur -62.6254 12.8697 -11.5785
ltibia 66.9893 -0 0
lfoot -5.69965 1.42571 -0.140935
ltoes -32.3627 0 0
rfemur -5.70367 -5.80751 19.6473
rtibia 61.4851 -0 0
rfoot -26.4701 -30.5551 0.0929587
rtoes -27.043 0 0
lowerback 13.2697 3.91337 4.886
upperback -0.721028 6.40486 3.79517
thorax -8.14669 3.02945 0.0719398
lowerneck -0.586638 14.659 6.8812
upperneck 4.92741 19.9578 -7.51384
head 3.32972 9.93154 -2.7618
lclavicle 4.57205e-14 -6.59965e-14 0
lhumerus 66.3964 -28.4421 52.9147
lradius 51.9856 -0 0
lwrist 0.346711 0 0
lhand -15.295 35.3366 -0.0505066
lfingers 7.12502 -0 0
lthumb 10.8796 65.0216 -0.0508561
rclavicle 4.57205e-14 -6.59965e-14 0
rhumerus -43.7169 26.8796 -78.093
rradius 95.4468 -0 0
rwrist -40.6874 0 0
rhand -11.9925 -42.9584 0.0498222
rfingers 7.12502 -0 0
rthumb 14.0608 -72.414 0.0604686
1943
root 4.62688 13.8431 28.3923 -45.0258 77.2683 -49.6614
lfemur -62.7718 12.7918 -12.6611
ltibia 66.6484 -0 0
lfoot -5.90851 1.86441 -0.151135
ltoes -32.2865 0 0
rfemur -6.26975 -5.80644 20.1058
rtibia 61.6132 -0 0
rfoot -26.7489 -30.7719 0.0996831
rtoes -27.0192 0 0
lowerback 13.3627 3.74232 4.96533
upperback -0.696843 6.20459 3.83772
thorax -8.17632 2.93161 0.109117
lowerneck -0.634345 14.5839 6.82913
upperneck 4.79919 19.8508 -7.57831
head 3.28756 9.87698 -2.7831
lclavicle 4.57205e-14 -6.59965e-14 0
lhumerus 67.1003 -29.1907 51.6118
lradius 54.882 -0 0
lwrist 1.02542 0 0
lhand -15.4736 35.5205 -0.0541591
lfingers 7.12502 -0 0
lthumb 10.7073 65.2135 -0.0545339
rclavicle 4.57205e-14 -6.59965e-14 0
rhumerus -43.402 27.7643 -78.0714
rradius 95.8405 -0 0
rwrist -41.2437 0 0
rhand -11.6657 -42.8593 0.0534261
rfingers 7.12502 -0 0
rthumb 14.3754 -72.289 0.0648426
1944
root 4.48734 13.8567 28.4252 -51.2345 78.4104 -55.9424
lfemur -62.9209 12.7089 -13.7742
ltibia 66.2978 -0 0
lfoot -6.12343 2.31571 -0.159959
ltoes -32.2081 0 0
rfemur -6.85201 -5.80065 20.5773
rtibia 61.7449 -0 0
rfoot -27.0356 -30.9949 0.1055
rtoes -26.9947 0 0
lowerback 13.458 3.56625 5.04664
upperback -0.672131 5.99857 3.88139
thorax -8.20686 2.83099 0.147408
lowerneck -0.683328 14.5066 6.77566
upperneck 4.66751 19.7405 -7.64431
head 3.24422 9.82085 -2.80497
lclavicle 4.57205e-14 -6.59965e-14 0
lhumerus 67.85 -29.9457 50.2505
lradius 57.8612 -0 0
lwrist 1.72356 0 0
lhand -15.6572 35.7097 -0.0573182
lfingers 7.12502 -0 0
lthumb 10.5301 65.411 -0.0577149
rclavicle 4.57205e-14 -6.59965e-14 0
rhumerus -43.075 28.6742 -78.0433
rradius 96.2454 -0 0
rwrist -41.8159 0 0
rhand -11.3296 -42.7573 0.0565433
rfingers 7.12502 -0 0
rthumb 14.6991 -72.1605 0.0686259
1945
root 4.3478 13.8703 28.4581 -58.8774 79.4075 -63.6591
lfemur -63.0715 12.6211 -14.912
ltibia 65.9391 -0 0
lfoot -6.34331 2.77732 -0.167232
ltoes -32.1279 0 0
rfemur -7.44745 -5.78979 21.0595
rtibia 61.8797 -0 0
rfoot -27.3289 -31.2231 0.110294
rtoes -26.9696 0 0
lowerback 13.5553 3.38602 5.12947
upperback -0.647029 5.78784 3.92594
thorax -8.23816 2.7281 0.186624
lowerneck -0.733331 14.4275 6.72106
upperneck 4.53307 19.6276 -7.71148
head 3.19993 9.76341 -2.82729
lclavicle 4.57205e-14 -6.59965e-14 0
lhumerus 68.6441 -30.7016 48.8357
lradius 60.9083 -0 0
lwrist 2.43761 0 0
lhand -15.8451 35.9032 -0.0599221
lfingers 7.12502 -0 0
lthumb 10.3489 65.6129 -0.0603368
rclavicle 4.57205e-14 -6.59965e-14 0
rhumerus -42.7369 29.6046 -78.008
rradius 96.6595 -0 0
rwrist -42.4012 0 0
rhand -10.9858 -42.653 0.0591126
rfingers 7.12502 -0 0
rthumb 15.0301 -72.029 0.0717442
1946
root 4.20826 13.8839 28.4911 -68.078 80.1901 -72.9347
lfemur -63.2229 12.5289 -16.0688
ltibia 65.5743 -0 0
lfoot -6.56705 3.24694 -0.172813
ltoes -32.0463 0 0
rfemur -8.05308 -5.77363 21.5499
rtibia 62.0167 -0 0
rfoot -27.6272 -31.4553 0.113972
rtoes -26.9441 0 0
lowerback 13.6539 3.20253 5.21341
upperback -0.621671 5.57344 3.97115
thorax -8.27008 2.62344 0.226573
lowerneck -0.784103 14.3469 6.66561
upperneck 4.39653 19.5126 -7.77949
head 3.1549 9.70497 -2.84995
lclavicle 4.57205e-14 -6.59965e-14 0
lhumerus 69.4806 -31.4529 47.3725
lradius 64.0082 -0 0
lwrist 3.16402 0 0
lhand -16.0362 36.1 -0.06192
lfingers 7.12502 -0 0
lthumb 10.1645 65.8183 -0.0623485
rclavicle 4.57205e-14 -6.59965e-14 0
rhumerus -42.389 30.551 -77.9653
rradius 97.0808 -0 0
rwrist -42.9966 0 0
rhand -10.636 -42.5469 0.0610841
rfingers 7.12502 -0 0
rthumb 15.3669 -71.8952 0.074137
1947
root 4.06871 13.8975 28.524 -78.6838 80.6843 -83.6164
lfemur -63.374 12.4325 -17.2391
ltibia 65.205 -0 0
lfoot -6.79354 3.7223 -0.176594
ltoes -31.9637 0 0
rfemur -8.66588 -5.75202 22.046
rtibia 62.1555 -0 0
rfoot -27.9292 -31.6902 0.116464
rtoes -26.9183 0 0
lowerback 13.7535 3.01667 5.29803
upperback -0.596186 5.35642 4.01679
thorax -8.30245 2.51754 0.267064
lowerneck -0.835391 14.2654 6.60958
upperneck 4.25859 19.396 -7.84797
head 3.10935 9.6458 -2.87283
lclavicle 4.57205e-14 -6.59965e-14 0
lhumerus 70.357 -32.1942 45.8664
lradius 67.1458 -0 0
lwrist 3.89926 0 0
lhand -16.2297 36.2992 -0.0632736
lfingers 7.12502 -0 0
lthumb 9.97782 66.0262 -0.0637115
rclavicle 4.57205e-14 -6.59965e-14 0
rhumerus -42.0326 31.5086 -77.9148
rradius 97.5072 -0 0
rwrist -43.5992 0 0
rhand -10.282 -42.4395 0.0624198
rfingers 7.12502 -0 0
rthumb 15.7077 -71.7598 0.075758
1948
root 3.92917 13.9111 28.557 -90.1237 80.8304 -95.1326
lfemur -63.5241 12.3324 -18.417
ltibia 64.8331 -0 0
lfoot -7.0217 4.20109 -0.178503
ltoes -31.8805 0 0
rfemur -9.28286 -5.72492 22.5454
rtibia 62.2952 -0 0
rfoot -28.2334 -31.9269 0.117723
rtoes -26.8923 0 0
lowerback 13.8535 2.82931 5.38292
upperback -0.570703 5.13781 4.06265
thorax -8.33514 2.4109 0.307904
lowerneck -0.886947 14.1832 6.55324
upperneck 4.1199 19.2784 -7.9166
head 3.06351 9.58618 -2.89582
lclavicle 4.57205e-14 -6.59965e-14 0
lhumerus 71.27 -32.9206 44.3235
lradius 70.306 -0 0
lwrist 4.63981 0 0
lhand -16.4245 36.4999 -0.0639569
lfingers 7.12502 -0 0
lthumb 9.78982 66.2357 -0.0643995
rclavicle 4.57205e-14 -6.59965e-14 0
rhumerus -41.6687 32.4728 -77.8562
rradius 97.9367 -0 0
rwrist -44.2061 0 0
rhand -9.92543 -42.3312 0.0630941
rfingers 7.12502 -0 0
rthumb 16.051 -71.6234 0.0765764
